<?xml version="1.0" encoding="utf-8"?>
<!-- Generator: Adobe Illustrator 25.2.1, SVG Export Plug-In . SVG Version: 6.00 Build 0)  -->
<svg version="1.1" id="Layer_1" xmlns="http://www.w3.org/2000/svg" xmlns:xlink="http://www.w3.org/1999/xlink" x="0px" y="0px"
	 width="5069.5px" height="1165px" viewBox="0 0 5069.5 1165" style="enable-background:new 0 0 5069.5 1165;" xml:space="preserve"
	>
<style type="text/css">
	.st0{fill:#A30000;}
	.st1{fill:#DB0F1F;}
	.st2{fill:#4D4D4D;}
</style>
<g>
	<g>
		<g>
			<g>
				<path class="st0" d="M767.8,428.7c-43.3,278.9-154,539.6-298.2,736.4c25.8-249.1-72-527.5-285.2-740.7
					C127.1,366.9,64.9,318.1,0,277.6c51.6,0.3,106.4-1.8,163.8-6.7c299.4-25.6,559-116,616.8-209.7
					C791.7,173.4,788.2,297.1,767.8,428.7z"/>
			</g>
			<path class="st1" d="M291.2,11.6c294-23.4,469.5-9.7,483.8,26.3c19.8,50-153,143.6-352,189.3C417.2,135.3,376.2,67.1,291.2,11.6z
				"/>
		</g>
	</g>
	<g>
		<g>
			<path class="st0" d="M2090.8,322.4v64.8c0,32.5-26.5,59-59.1,59h-183.4v-40.7c0-15.5,12.6-28.1,28.1-28.1h134.8
				c6,0,10.9-4.9,10.9-10.9v-10.9h-145.7c-15.5,0-28.1-12.6-28.1-28.1v-64.8c0-32.6,26.5-59,59.1-59h183.4v40.7
				c0,15.5-12.6,28.1-28,28.1h-134.8c-6,0-10.9,4.9-10.9,10.9v10.9h145.7C2078.2,294.3,2090.8,306.9,2090.8,322.4"/>
			<path class="st0" d="M1819.3,203.7v214.4c0,15.5-12.6,28.1-28.1,28.1h-40.7V272.5h-10.9c-6,0-10.9,4.9-10.9,10.9v134.7
				c0,15.5-12.6,28.1-28.1,28.1h-33.3V272.5h-10.9c-6,0-10.9,4.9-10.9,10.9v134.8c0,15.5-12.6,28.1-28.1,28.1h-40.7V262.8
				c0-32.6,26.5-59.1,59.1-59.1H1819.3z"/>
			<path class="st0" d="M1548.1,377.5v40.7c0,15.5-12.6,28-28.1,28h-155.4c-32.6,0-59.1-26.5-59.1-59.1V262.8
				c0-32.6,26.5-59.1,59.1-59.1h183.5v40.7c0,15.5-12.6,28.1-28.1,28.1h-134.7c-6,0-10.9,4.9-10.9,10.9v10.9h173.7v33.3
				c0,15.5-12.6,28.1-28.1,28.1h-145.7v10.9c0,6,4.9,10.9,10.9,10.9H1548.1z"/>
			<path class="st0" d="M1276.9,322.4v95.8c0,15.5-12.6,28-28.1,28h-155.4c-32.6,0-59.1-26.5-59.1-59V262.8c0-32.6,26.5-59,59.1-59
				h183.5v40.7c0,15.5-12.6,28.1-28.1,28.1h-111.6c-18.7,0-34,15.3-34,34.1v60c0,6,4.9,10.9,10.9,10.9h83.2c6,0,10.9-4.9,10.9-10.9
				v-10.9H1125v-33.3c0-15.5,12.6-28.1,28.1-28.1h95.8C1264.3,294.3,1276.9,306.9,1276.9,322.4"/>
		</g>
		<g>
			<path class="st2" d="M1087.3,641v266.1h124.5v47.5h-177.4V641H1087.3z"/>
			<path class="st2" d="M1337.6,641v313.5h-52V641H1337.6z M1318.4,641h158.1v46.6h-158.1V641z M1318.4,763.8h149.1v45.7h-149.1
				V763.8z M1318.4,908h158.1v46.6h-158.1V908z"/>
			<path class="st2" d="M1726.4,790.6h150.9c0.6,23-2.4,44.7-9,65.2c-6.6,20.5-16.4,38.6-29.6,54.4c-13.1,15.8-29.5,28.3-49,37.4
				c-19.6,9.1-41.7,13.7-66.5,13.7c-23.6,0-45.4-4-65.4-11.9c-20-7.9-37.4-19.2-52.2-33.8c-14.8-14.6-26.2-31.9-34.3-52
				c-8.1-20-12.1-41.9-12.1-65.8c0-23.9,4.1-45.8,12.3-65.6c8.2-19.9,19.7-37,34.5-51.5c14.8-14.5,32.2-25.6,52.4-33.4
				c20.2-7.8,42-11.6,65.6-11.6c20.6,0,39.3,2.8,56,8.3c16.7,5.5,31.7,13.4,45,23.7c13.3,10.3,24.6,22.8,33.8,37.4l-43,28.7
				c-8.7-14.9-20.7-26.9-36.1-35.8c-15.4-9-34-13.4-55.8-13.4c-20.3,0-38.7,4.7-55.1,14.1c-16.4,9.4-29.6,22.5-39.4,39.4
				c-9.9,16.9-14.8,36.8-14.8,59.8c0,22.7,4.9,42.6,14.6,59.8c9.7,17.2,22.8,30.5,39.2,40.1c16.4,9.6,34.9,14.3,55.5,14.3
				c14,0,26.6-1.9,37.6-5.8c11-3.9,20.6-9.4,28.7-16.6c8.1-7.2,14.8-15.4,20.2-24.6c5.4-9.2,9.4-19.1,12.1-29.6h-96.3V790.6z"/>
			<path class="st2" d="M2024.3,844.8l-0.9,11.6l-43.4,98.1h-59.6l153.2-331l153.2,331h-59.6l-42.5-95.4l-1.3-13l-49.7-116.5
				L2024.3,844.8z M2001.4,829.2H2147l10.3,44.8h-165.7L2001.4,829.2z"/>
			<path class="st2" d="M2339.3,856c10,16.7,23.1,29.6,39.4,38.7c16.3,9.1,34,13.7,53.1,13.7c14.9,0,28.4-1.9,40.3-5.8
				c11.9-3.9,22.8-9.2,32.5-15.9c9.7-6.7,18.1-14.3,25.3-22.6v62.7c-13.1,10.7-27.3,19-42.6,24.6c-15.2,5.7-34.3,8.5-57.3,8.5
				c-23,0-44.4-3.9-64.3-11.6c-19.9-7.8-37.1-19-51.7-33.6c-14.6-14.6-26.1-31.9-34.3-51.7c-8.2-19.9-12.3-41.6-12.3-65.2
				c0-23.6,4.1-45.3,12.3-65.2c8.2-19.9,19.6-37.1,34.3-51.7c14.6-14.6,31.9-25.8,51.7-33.6c19.9-7.8,41.3-11.6,64.3-11.6
				c23,0,42.1,2.8,57.3,8.5c15.2,5.7,29.4,13.9,42.6,24.6v62.7c-7.2-8.4-15.6-15.9-25.3-22.6c-9.7-6.7-20.5-12-32.5-15.9
				c-11.9-3.9-25.4-5.8-40.3-5.8c-19.1,0-36.8,4.6-53.1,13.7c-16.3,9.1-29.4,21.9-39.4,38.5c-10,16.6-15,36.1-15,58.5
				C2324.3,819.9,2329.3,839.3,2339.3,856z"/>
			<path class="st2" d="M2850.2,641l-106.6,181.4v132.1h-53.7V822.9L2583.7,641h60l73,134.4l73-134.4H2850.2z"/>
			<path class="st2" d="M3135.2,885.4c7.9,9.1,16.6,16.1,26.2,21c9.6,4.9,20.3,7.4,32.2,7.4c14.3,0,26-3.9,34.9-11.6
				c9-7.8,13.4-17.8,13.4-30c0-11.6-2.8-21-8.5-28c-5.7-7-13.5-13-23.5-17.9c-10-4.9-21.6-9.8-34.7-14.6c-7.8-2.7-16.4-6.3-26-11
				c-9.6-4.6-18.7-10.4-27.3-17.5c-8.7-7-15.8-15.7-21.5-26c-5.7-10.3-8.5-22.8-8.5-37.4c0-16.7,4.3-31.4,13-44.1
				c8.7-12.7,20.4-22.5,35.2-29.6c14.8-7,31.6-10.5,50.4-10.5c18.5,0,34.6,3.3,48.4,9.9c13.7,6.6,25.3,14.9,34.7,25.1
				c9.4,10.2,16.8,20.8,22.2,31.8l-43,24.2c-3.9-7.8-8.8-15-14.8-21.7c-6-6.7-12.9-12.1-20.8-16.1c-7.9-4-17.1-6-27.5-6
				c-14.6,0-25.4,3.4-32.2,10.1c-6.9,6.7-10.3,14.6-10.3,23.5c0,8.1,2.5,15.3,7.4,21.7c4.9,6.4,12.6,12.5,23.1,18.1
				c10.5,5.7,24,11.5,40.8,17.5c9.2,3.3,18.6,7.5,28,12.5c9.4,5.1,18,11.4,25.8,19c7.8,7.6,14,16.5,18.6,26.6
				c4.6,10.2,6.9,22.1,6.9,35.8c0,14.6-2.8,27.8-8.5,39.4c-5.7,11.6-13.4,21.4-23.3,29.3c-9.9,7.9-21,14-33.4,18.4
				c-12.4,4.3-25.3,6.5-38.7,6.5c-18.5,0-35.6-3.7-51.3-11c-15.7-7.3-29.3-17.1-41-29.3c-11.6-12.2-20.9-25.5-27.8-39.9l39.4-27.3
				C3119.9,865.7,3127.3,876.3,3135.2,885.4z"/>
			<path class="st2" d="M3441.6,856c10,16.7,23.1,29.6,39.4,38.7c16.3,9.1,34,13.7,53.1,13.7c14.9,0,28.4-1.9,40.3-5.8
				c11.9-3.9,22.8-9.2,32.5-15.9c9.7-6.7,18.1-14.3,25.3-22.6v62.7c-13.1,10.7-27.3,19-42.6,24.6c-15.2,5.7-34.3,8.5-57.3,8.5
				c-23,0-44.4-3.9-64.3-11.6c-19.9-7.8-37.1-19-51.7-33.6c-14.6-14.6-26.1-31.9-34.3-51.7c-8.2-19.9-12.3-41.6-12.3-65.2
				c0-23.6,4.1-45.3,12.3-65.2c8.2-19.9,19.6-37.1,34.3-51.7c14.6-14.6,31.9-25.8,51.7-33.6c19.9-7.8,41.3-11.6,64.3-11.6
				c23,0,42.1,2.8,57.3,8.5c15.2,5.7,29.4,13.9,42.6,24.6v62.7c-7.2-8.4-15.6-15.9-25.3-22.6c-9.7-6.7-20.5-12-32.5-15.9
				c-12-3.9-25.4-5.8-40.3-5.8c-19.1,0-36.8,4.6-53.1,13.7c-16.3,9.1-29.4,21.9-39.4,38.5c-10,16.6-15,36.1-15,58.5
				C3426.6,819.9,3431.6,839.3,3441.6,856z"/>
			<path class="st2" d="M3785.8,641v313.5H3733V641H3785.8z M3754,762h223.5v48.8H3754V762z M3996.3,641v313.5h-52.8V641H3996.3z"/>
			<path class="st2" d="M4096.2,732.9c8.1-19.7,19.5-36.8,34.3-51.3c14.8-14.5,32.1-25.8,52-33.8c19.9-8.1,41.3-12.1,64.3-12.1
				c23.6,0,45.2,4,64.9,12.1c19.7,8.1,37,19.3,51.7,33.8c14.8,14.5,26.2,31.6,34.3,51.3c8.1,19.7,12.1,41.4,12.1,64.9
				c0,23.3-4,44.9-12.1,64.9c-8.1,20-19.4,37.3-34,52c-14.6,14.6-31.9,26.1-51.7,34.3c-19.9,8.2-41.6,12.3-65.2,12.3
				c-23.3,0-44.9-4.1-64.9-12.3c-20-8.2-37.3-19.6-51.7-34.3c-14.5-14.6-25.8-31.9-33.8-52c-8.1-20-12.1-41.7-12.1-64.9
				C4084.1,774.2,4088.1,752.6,4096.2,732.9z M4153.8,855.4c9.1,16.9,21.7,30.1,37.8,39.6c16.1,9.6,34.5,14.3,55.1,14.3
				c20.9,0,39.3-4.8,55.3-14.3c16-9.6,28.5-22.8,37.6-39.6c9.1-16.9,13.7-36.1,13.7-57.6s-4.5-40.7-13.4-57.6
				c-9-16.9-21.4-30.1-37.4-39.6c-16-9.6-34.6-14.3-55.8-14.3c-20.6,0-39,4.8-55.1,14.3c-16.1,9.6-28.7,22.8-37.8,39.6
				c-9.1,16.9-13.7,36.1-13.7,57.6S4144.6,838.5,4153.8,855.4z"/>
			<path class="st2" d="M4491.2,732.9c8.1-19.7,19.5-36.8,34.3-51.3c14.8-14.5,32.1-25.8,52-33.8c19.9-8.1,41.3-12.1,64.3-12.1
				c23.6,0,45.2,4,64.9,12.1c19.7,8.1,37,19.3,51.7,33.8c14.8,14.5,26.2,31.6,34.3,51.3c8.1,19.7,12.1,41.4,12.1,64.9
				c0,23.3-4,44.9-12.1,64.9c-8.1,20-19.4,37.3-34,52c-14.6,14.6-31.9,26.1-51.7,34.3c-19.9,8.2-41.6,12.3-65.2,12.3
				c-23.3,0-44.9-4.1-64.9-12.3c-20-8.2-37.3-19.6-51.7-34.3c-14.5-14.6-25.8-31.9-33.8-52c-8.1-20-12.1-41.7-12.1-64.9
				C4479.1,774.2,4483.2,752.6,4491.2,732.9z M4548.8,855.4c9.1,16.9,21.7,30.1,37.8,39.6c16.1,9.6,34.5,14.3,55.1,14.3
				c20.9,0,39.3-4.8,55.3-14.3c16-9.6,28.5-22.8,37.6-39.6c9.1-16.9,13.7-36.1,13.7-57.6s-4.5-40.7-13.4-57.6
				c-9-16.9-21.4-30.1-37.4-39.6c-16-9.6-34.6-14.3-55.8-14.3c-20.6,0-39,4.8-55.1,14.3c-16.1,9.6-28.7,22.8-37.8,39.6
				c-9.1,16.9-13.7,36.1-13.7,57.6S4539.7,838.5,4548.8,855.4z"/>
			<path class="st2" d="M4945,641v266.1h124.5v47.5h-177.4V641H4945z"/>
		</g>
		<g>
			<rect x="2268.3" y="514.6" class="st2" width="27.3" height="27.5"/>
			<rect x="2315.2" y="514.6" class="st2" width="27.3" height="27.5"/>
			<path class="st2" d="M2613.1,390.7c0,18.1-6.9,27.3-21.1,27.3h-27c3.7-4,5.7-14.1,5.7-30.2v-54h-28v56.8
				c0,18.3-6.9,27.5-21.1,27.5h-25.8v-1.5c3-4.7,4.5-14.1,4.5-28.8v-54h-28v55c0,19.6-6.9,29.2-21.1,29.2h-13.9h-6.5h-4
				c-14.1,0-23.8-7.2-34-25.8c-10.9-19.6-27.3-29.5-49.1-29.5H2333v25.3c1.5-0.2,3-0.2,4.5-0.2c15.9,0,25,10.9,25,26.3
				c0,25.3-24.3,46.6-56.5,46.6c-35.9,0-58.2-24-58.2-62.5v-24.5H2220v27.8c0,48.8,37.7,86,85.3,86c40.4,0,73.6-24.3,81.5-63
				c10.5,15.8,18.8,21,44.1,21.7v0.1H2593c28.3,0,48.1-23.3,48.1-59v-53.5h-28V390.7z"/>
			<rect x="2857.7" y="472.7" class="st2" width="27.3" height="27.8"/>
			<rect x="3018.3" y="472.7" class="st2" width="27.3" height="27.8"/>
			<rect x="2971.5" y="472.7" class="st2" width="27.3" height="27.8"/>
			<path class="st2" d="M3122.9,391.9c0,8.9-0.7,14.9-2,17.8c-2.7,5.5-8.4,8.2-17.6,8.2H3087h-7.2h-39.4c4.2-4.7,6.2-14.1,6.2-28.8
				v-55.5H3019v57c0,8.7-1,15.1-3,18.8c-3,5.7-8.7,8.4-16.9,8.4h-18.8h-7.7h-18.6c-2.2-34.5-14.6-58.5-37.2-72.4
				c-12.9-7.9-28-11.9-45.1-11.9c-10.9,0-21.8,2.2-32.7,6.9c-10.2,4.5-18.8,10.4-26.5,17.6c6.2,9.4,10.7,16.6,13.4,21.8
				c6-6.7,13.4-11.9,22.3-15.6c7.7-3.2,14.6-4.7,20.8-4.7c18.1,0,32.5,6.2,42.6,18.8c8.7,10.9,12.9,24,12.9,39.4h-137.3h-6h-40.1
				h-8.7h-7.7c-10.4,0-17.6-1.5-21.3-4.2c-5.2-3.7-7.9-11.6-7.9-23.8V286.3h-27.5v114.8c0,13.6,3.2,24.3,9.9,32.2
				c7.2,8.7,17.3,12.9,30.7,12.9h23.8h8.7h40.1h6h185.4h7.7h99.4h7.2h22.1c27.8,0,41.6-14.9,41.6-44.9v-115h-27.8V391.9z"/>
			<rect x="3752.9" y="472.7" class="st2" width="27.3" height="27.8"/>
			<rect x="3706.1" y="472.7" class="st2" width="27.3" height="27.8"/>
			<path class="st2" d="M4002,347.3c-13.4-9.2-29.2-13.6-47.6-13.6c-10.9,0-21.8,2.2-32.7,6.9c-10.2,4.5-18.8,10.4-26.5,17.6
				c6.2,9.4,10.7,16.6,13.4,21.8c5.9-6.7,13.4-11.9,22.3-15.6c7.7-3.2,14.6-4.7,20.8-4.7c18.1,0,32.5,6.2,42.6,18.8
				c8.7,10.9,12.9,24,12.9,39.4h-137.3h-7.2h-41.1h-6.5H3775c4.2-4.7,6.2-14.1,6.2-28.8v-55.5h-27.5v57c0,8.7-1,15.1-3,18.8
				c-3,5.7-8.7,8.4-16.9,8.4H3716h-8.7h-16.1v-7.2c0-16.6-5.2-30.2-15.4-41.4c-10.2-11.2-23.5-16.6-40.2-16.6s-30,5.5-40.4,16.1
				c-10.2,10.7-15.4,24.3-15.4,40.9c0,2.7,0,5.5,0.2,8.2h-20.6h-6.2h-36.2c4.2-8.9,6.2-19.1,6.2-30.7v-53.5h-28v57
				c0,18.1-6.9,27.3-21.1,27.3h-27c3.7-4,5.7-14.1,5.7-30.2v-54h-28v56.8c0,18.3-6.9,27.5-21.1,27.5h-22.6c0.7-5,1.2-10.2,1.2-15.4
				v-68.9h-28v65.7c0,16.1-4,30-12.1,41.6c-9.7,13.1-22.3,19.8-37.9,19.8c-15.9,0-28.5-6.7-38.2-19.8c-8.2-11.6-12.4-25.5-12.4-41.6
				v-65.7h-28v68.9c0,24,7.9,44.1,23.5,60.5c15.1,16.1,33.5,24.3,55,24.3c21.8,0,40.2-8.4,55.3-25.3c4.7-5,8.4-10.2,11.7-15.9h181.9
				h6.2h31.7c10.7,14.4,25.3,21.6,44.4,21.6c19.3,0,34.2-7.2,44.9-21.6h26.8h8.7h99.1h6.5h41.1h7.2h167.3v-17.3
				C4037.2,389.9,4025.5,362.9,4002,347.3z M3656.3,432.6c-4.7,6.2-11.4,9.4-19.8,9.4c-17.1,0-28-14.6-28-32.5
				c0-8.7,2.2-16.1,6.4-21.8c5-6.7,11.6-9.9,20.1-9.9c8.7,0,15.9,3.5,21.1,10.2c4.5,6.2,6.7,13.9,6.7,22.6
				C3662.7,419.4,3660.5,426.9,3656.3,432.6z"/>
			<rect x="3940.3" y="473" class="st2" width="27.3" height="27.8"/>
			<rect x="4148.7" y="261.8" class="st2" width="27.3" height="27.8"/>
			<rect x="4195.6" y="261.8" class="st2" width="27.3" height="27.8"/>
			<path class="st2" d="M4544.3,390.7c0,18.1-6.9,27.3-21.1,27.3h-27c3.7-4,5.7-14.1,5.7-30.2v-54h-28v56.8
				c0,18.3-6.9,27.5-21.1,27.5h-25.8v-1.5c3-4.7,4.5-14.1,4.5-28.8v-54h-28v55c0,19.6-6.9,29.2-21.1,29.2h-15.1h-5.2h-43.9h-5.7
				h-42.1h-7h-10.6c-18.6,0-27.8-10.4-27.8-29.7v-78.6h-61.2c-31.7,0-51.3,23.1-51.3,60.2c0,34.5,19.6,58.2,51.3,58.2
				c12.4,0,23-6.2,31.7-18.6c5.7,22.1,23.3,36.7,44.9,36.7h23h7h42.1h5.7h43.9h5.2h156.9c28.3,0,48.1-23.3,48.1-59v-53.5h-28V390.7z
				 M4196.3,367.1c0,21.1-10.9,37.9-29,37.9c-16.6,0-27.3-16.4-27.3-35.4c0-23.1,11.9-38.4,31.2-38.4h25V367.1z"/>
			<path class="st2" d="M4626.6,428.3c0,23.8-11.4,35.2-34.5,35.2v23.8c42.6,0,62.2-18.6,62.2-63.2v-90.5h-27.8V428.3z"/>
			<path class="st2" d="M5014,353c-33,0-56,23.8-56,57c0,2.2,0.2,4.5,0.5,6.7l0.3,1.2h-28h-6.2h-42.9h-5.7h-37.4h-11.7h-31.5
				c-0.2-42.4-16.9-69.2-50.1-80.3c-6.4-2.2-11.4-3.2-14.9-3.5c-3.5-0.2-12.1-0.5-25.8-0.5v25.3c8.9,0,17.3,0.5,25,2.2
				c25,5.5,37.7,24.3,37.7,56.8h-89.7v28.3h149.2h11.7h37.4h5.7h42.9h6.2h38.4c10.7,14.6,25.8,22.1,44.9,22.1
				c33,0,55.5-24.3,55.5-57.3C5069.5,378.5,5046.9,353,5014,353z M5014.7,442.5c-16.6,0-28.3-14.1-28.3-32.7s11.2-31.7,26.8-31.7
				c16.4,0,27.8,14.1,27.8,33S5030.1,442.5,5014.7,442.5z"/>
		</g>
	</g>
</g>
</svg>
