<svg width="40" height="40" viewBox="0 0 40 40" fill="none" xmlns="http://www.w3.org/2000/svg">
<rect width="40" height="40" rx="10" fill="#2B90D9"/>
<rect x="0.5" y="0.5" width="39" height="39" rx="9.5" stroke="black" stroke-opacity="0.08"/>
<g clip-path="url(#clip0_616_3815)">
<path d="M30.0843 22.1888C29.7827 23.7407 27.3826 25.4391 24.626 25.7683C23.1886 25.9398 21.7734 26.0974 20.2643 26.0282C17.7963 25.9151 15.8488 25.4391 15.8488 25.4391C15.8488 25.6794 15.8636 25.9081 15.8933 26.1221C16.2141 28.5577 18.3084 28.7036 20.2923 28.7717C22.2946 28.8402 24.0775 28.278 24.0775 28.278L24.1598 30.0882C24.1598 30.0882 22.7592 30.8402 20.2643 30.9786C18.8885 31.0542 17.1803 30.944 15.1906 30.4173C10.8754 29.2752 10.1333 24.6754 10.0198 20.0082C9.98517 18.6225 10.0065 17.3158 10.0065 16.223C10.0065 11.4505 13.1334 10.0516 13.1334 10.0516C14.7101 9.3275 17.4155 9.02299 20.2281 9H20.2972C23.1098 9.02299 25.817 9.3275 27.3936 10.0516C27.3936 10.0516 30.5204 11.4505 30.5204 16.223C30.5204 16.223 30.5596 19.7441 30.0843 22.1888Z" fill="white"/>
<path d="M26.8322 16.5932V22.3719H24.5428V16.763C24.5428 15.5807 24.0454 14.9806 23.0503 14.9806C21.9501 14.9806 21.3987 15.6925 21.3987 17.1001V20.1702H19.1228V17.1001C19.1228 15.6925 18.5713 14.9806 17.4711 14.9806C16.4761 14.9806 15.9786 15.5807 15.9786 16.763V22.3719H13.6892V16.5932C13.6892 15.4122 13.9899 14.4736 14.5939 13.7793C15.2168 13.0849 16.0325 12.729 17.0451 12.729C18.2167 12.729 19.1039 13.1793 19.6905 14.08L20.2607 15.0359L20.8311 14.08C21.4176 13.1793 22.3048 12.729 23.4764 12.729C24.4889 12.729 25.3046 13.0849 25.9276 13.7793C26.5315 14.4736 26.8322 15.4122 26.8322 16.5932Z" fill="#2B90D9"/>
</g>
<defs>
<clipPath id="clip0_616_3815">
<rect width="20.5212" height="22" fill="white" transform="translate(10 9)"/>
</clipPath>
</defs>
</svg>
